<svg width="180" height="180" viewBox="0 0 180 180" fill="none" xmlns="http://www.w3.org/2000/svg">
<g clip-path="url(#clip0)">
<path d="M3.51128 36.9966C5.39925 19.281 19.281 5.39924 36.9967 3.51128C53.5635 1.74574 73.992 0 90 0C106.008 0 126.437 1.74574 143.003 3.51128C160.719 5.39924 174.601 19.281 176.489 36.9967C178.254 53.5635 180 73.992 180 90C180 106.008 178.254 126.437 176.489 143.003C174.601 160.719 160.719 174.601 143.003 176.489C126.437 178.254 106.008 180 90 180C73.992 180 53.5635 178.254 36.9967 176.489C19.281 174.601 5.39924 160.719 3.51128 143.003C1.74574 126.437 0 106.008 0 90C0 73.992 1.74574 53.5635 3.51128 36.9966Z" fill="#C8F5F8"/>
<path d="M113.526 28.0342L95.2256 127.382L108.298 129.996C135.967 109.735 147.84 28.0342 113.526 28.0342Z" fill="#4E1E30"/>
<path d="M113.531 28.0341C108.956 25.2561 84.8088 18.2011 66.4718 28.0341C43.9226 40.1258 24.2053 83.3724 56.0142 127.382C56.0595 127.444 79.544 124.768 79.544 124.768L113.531 28.0341Z" fill="#4E1E30"/>
<path fill-rule="evenodd" clip-rule="evenodd" d="M69.9749 193.73H91.0433H115.619V132.488C110.323 128.373 110.306 121.647 110.306 115.459H110.158V109.081H71.9291V115.452C71.9291 121.694 71.903 128.479 66.4678 132.583V192.793C67.6285 193.126 68.7977 193.438 69.9749 193.73Z" fill="#FFD7A3"/>
<path d="M112.54 179.163C104.647 179.675 96.9114 180 90 180C85.1048 180 79.7962 179.837 74.311 179.56V162.02C79.2823 163.372 84.823 164.151 90.6947 164.151C98.8235 164.151 106.345 162.691 112.54 160.219V179.163Z" fill="#304CFD"/>
<path d="M110.914 143.068C111.868 143.329 112.727 143.467 113.529 143.535V131.492C108.458 127.552 108.442 121.112 108.442 115.187L108.438 115.035V108.929L79.5414 109.081L71.6982 111.695C76.9271 117.578 92.9406 138.166 110.914 143.068Z" fill="#FDC88E"/>
<path d="M126.604 75.0932C126.604 96.0298 105.782 122.153 90.0021 122.153C74.2226 122.153 53.4004 96.0298 53.4004 75.0932C53.4004 54.1567 69.7878 46.3345 90.0021 46.3345C110.217 46.3345 126.604 54.1567 126.604 75.0932Z" fill="#FFE1B2"/>
<path d="M122.704 75.3324C126.982 74.3518 129.784 76.4468 129.784 80.5613C129.784 86.008 124.032 99.3525 117.984 91.0189C111.936 82.6854 122.704 75.3324 122.704 75.3324Z" fill="#FFE1B2"/>
<path d="M95.2274 33.2627C93.7586 33.2627 88.9893 34.9131 85.0913 36.3593L84.7699 35.877C84.7699 35.877 84.2319 36.2997 83.3006 37.0324C81.1325 37.8556 79.5413 38.4913 79.5413 38.4913L80.1528 39.5108C70.2296 47.329 47.5893 65.2138 45.5535 67.25C42.9392 69.8643 61.2401 136.566 61.2401 98.6231C61.2401 66.9235 78.8516 60.6456 95.2274 56.7925C102.635 55.0495 104.813 50.6922 105.685 46.3349C106.556 41.9777 97.8421 33.2627 95.2274 33.2627Z" fill="#4E1E30"/>
<path d="M103.071 48.9493C107.864 66.1607 117.451 73.9495 126.438 76.2372C131.362 77.4907 129.216 62.0215 129.216 62.0215C129.216 62.0215 122.244 44.1561 121.372 43.7207C120.501 43.2848 113.529 28.0342 113.529 28.0342L97.8428 41.1064L103.071 48.9493Z" fill="#4E1E30"/>
<path d="M83.2711 179.908C68.5278 179.527 51.3191 178.015 36.9967 176.489C31.5682 175.91 26.4996 174.206 22.0259 171.61V165.563C22.0259 148.974 35.4742 135.526 52.0629 135.526H52.9729C63.6732 135.526 68.8873 132.605 71.4447 128.45L83.2711 179.908Z" fill="#FF965D"/>
<path d="M160.712 169.858C155.613 173.44 149.572 175.789 143.003 176.489C129.565 177.921 113.586 179.34 99.4856 179.825L111.293 128.45C113.85 132.605 119.064 135.526 129.765 135.526H130.675C147.263 135.526 160.712 148.974 160.712 165.563V169.858Z" fill="#FF965D"/>
</g>
<defs>
<clipPath id="clip0">
<rect width="180" height="180" fill="white"/>
</clipPath>
</defs>
</svg>
